<svg xmlns="http://www.w3.org/2000/svg" viewBox="0 0 291.12 274.59"><defs><style>.cls-1{fill:#efc79c;}.cls-2{fill:#1e1e1e;}.cls-3{fill:#f7c58d;}.cls-4{fill:#f35;}.cls-5{fill:#ff7190;}.cls-6{fill:#333;}.cls-7{fill:#ffecc5;}.cls-8{fill:#e2e2e2;}.cls-9{fill:#a5a5a5;}.cls-10{fill:#7f7f7f;}.cls-11{fill:#d00;}.cls-12{fill:#3f3f3f;}.cls-13{fill:#efefef;}.cls-14{fill:#3d3d3c;}.cls-15{fill:#ed3535;}.cls-16{fill:#2d2d2c;}.cls-17{fill:#ef5050;}.cls-18{fill:#4c4c4c;}.cls-19{fill:#efc100;}.cls-20{fill:#21457a;}.cls-21{fill:#4c4b4b;}.cls-22{fill:#353535;}.cls-23{fill:#ffcf03;}.cls-24{fill:#ffdaae;}.cls-25{fill:#2d2d2d;}.cls-26{fill:#474747;}.cls-27{fill:#ddd;}.cls-28{fill:#ea2f2f;}.cls-29{fill:#bcbcbc;}.cls-30{fill:#c10505;}.cls-31{fill:#d2f0ff;opacity:0.49;}.cls-32{fill:#d3d1cd;}.cls-33{fill:#ea9c00;}.cls-34{fill:#a3a199;}</style></defs><g id="Layer_2" data-name="Layer 2"><g id="OBJECTS"><polygon class="cls-1" points="149.26 204.58 144.27 212.65 142.63 214.96 151.44 219.72 157.39 209.92 149.26 204.58"/><path class="cls-2" d="M138.16,118.73s53.07,16.65,60.38,25.52-40.46,67.31-40.46,67.31L147.15,205s15.56-38.33,29.08-45c2.69-4.63-24.93-7.9-48.24-9.35s-19-15.35-11.44-32.4C130.19,112.37,138.16,118.73,138.16,118.73Z"/><path class="cls-3" d="M132.07,40s5.61-11.56,6.39-18.22c8.12,10.53,14.71,15.6,14.86,16.06-6.45,6.9-7.89,17.6-7.89,17.6Z"/><path class="cls-4" d="M52.69,178.27H43.87a7.53,7.53,0,0,0-6.07,3.07l-7.44,10.1a7.52,7.52,0,0,0-.3,8.5l3.67,5.78Z"/><path class="cls-5" d="M29.6,194.88,37,184.78a7.55,7.55,0,0,1,6.08-3.07H50.3l2.39-3.45H43.87a7.53,7.53,0,0,0-6.07,3.07l-7.44,10.1a7.48,7.48,0,0,0-1.45,4.62A7.64,7.64,0,0,1,29.6,194.88Z"/><circle class="cls-6" cx="258.03" cy="241.51" r="33.08"/><circle class="cls-7" cx="258.03" cy="241.51" r="25.53"/><circle class="cls-8" cx="258.03" cy="241.51" r="19.65"/><circle class="cls-9" cx="258.03" cy="241.51" r="16.94"/><rect class="cls-8" x="247.81" y="204.36" width="7.79" height="39.47" transform="translate(-62.12 101.25) rotate(-20.3)"/><circle class="cls-6" cx="258.03" cy="241.51" r="5.1"/><circle class="cls-10" cx="258.03" cy="241.51" r="2.59"/><circle class="cls-6" cx="72.25" cy="241.26" r="33.08"/><circle class="cls-7" cx="72.25" cy="241.26" r="25.53"/><circle class="cls-8" cx="72.25" cy="241.26" r="19.65"/><circle class="cls-9" cx="72.25" cy="241.26" r="16.94"/><circle class="cls-6" cx="72.25" cy="241.26" r="5.1"/><circle class="cls-10" cx="72.25" cy="241.26" r="2.59"/><path class="cls-11" d="M231.8,218.48s27.09-13.32,55.85-5.91c-.21-15-11.69-35.23-46-27S231.8,218.48,231.8,218.48Z"/><path class="cls-12" d="M239.7,187.3c-5.87,1.41-10,3.3-12.85,5.47a12.71,12.71,0,0,0-2.49,3.64,36.65,36.65,0,0,1,11.88-4.78c28.87-6.93,41.56,6.33,45,19.62,1.45.23,2.89.5,4.35.83C284.3,197.43,272.34,179.46,239.7,187.3Z"/><path class="cls-13" d="M223.84,84.81s7.3,12.88.6,22.3C218.69,105.69,223.84,84.81,223.84,84.81Z"/><path class="cls-11" d="M241.66,185.58l10.59-3s-9.86-29.7-35.81-74.15c-2.3,1-4.9,1.78-4.9,1.78Z"/><path class="cls-14" d="M201.94,110.61s22.88,54.68,9.49,84.43c-2.63,10.13,10.15,7.39,10.15,7.39s14.65-33-15.84-94C204.32,107.59,201.94,110.61,201.94,110.61Z"/><path class="cls-11" d="M158.53,158.77l-72.72-.09c-11.67,0-48.51,15.89-59.93,65.28l71.31.09c8.9,0,10.65,16,10.65,16l89.25.12c10.43,0,28.9-40.16,19.1-60.73-4.32,21.47-13.85,32.51-24.59,35.56-8.26,2.35-32.49,2.14-43.24,1.91a6.92,6.92,0,0,1-6.62-5.41c-1.33-6-3-15.94-1.35-24.49C142.86,173.79,157.29,172,158.53,158.77Z"/><path class="cls-15" d="M24.34,226.72l87,.11s12.69-27.14,2.59-42.57-51.77-10.65-69.51,5S24.34,226.72,24.34,226.72Z"/><path class="cls-16" d="M108.48,226.83c2.52-6.09,9.86-26.33,1.7-38.69-9.18-13.91-45.53-10.54-63.77,2.51,19.3-9.3,48.34-10.42,56.4,1.8,6.75,10.22,2.9,25.83-.06,34.37Z"/><path class="cls-11" d="M105.35,230.74l72.73.09c15.88,0,47.2-24.56,40.92-62.31s-15.91-55.72-15.91-55.72l11-3.36s21.12,41.15,25.7,53.43,11.45,45.28-13.43,68c-10.14,8.5-18,11.94-29.48,11.93l-88.37-.12Z"/><path class="cls-17" d="M239.84,162.87c-4.58-12.28-25.7-53.43-25.7-53.43L210,110.7c5.08,10.57,19.72,41.5,22.93,53.23,3.45,12.65,10.8,46.55-14.09,69.3a56.27,56.27,0,0,1-13.58,8.87c7.4-1.4,13.64-4.91,21.14-11.2C251.29,208.15,244.43,175.15,239.84,162.87Z"/><path class="cls-18" d="M179.68,234c15.88,0,48.22-25.67,41.95-63.43-5.67-34.08-15.4-54.53-17.24-58.19l-1.3.4s9.64,18,15.91,55.72-25,62.34-40.92,62.31l-72.73-.09.85,3.19Z"/><path class="cls-18" d="M90.62,143s-11.53,15.64.56,15.65l67.35.09c3.3,0,7.81-12.65,1.71-13.11s-25,1.8-39.24-1.44S95,138,90.62,143Z"/><path class="cls-11" d="M202.17,113.72s14.73-4.81,16.57-5.27,5.76-.91,5.76-.91-2.4-17.73,0-22.67c-5.17-5-12.43-3.36-20,3.77S194.25,97,194.82,99,202.17,113.72,202.17,113.72Z"/><path class="cls-9" d="M203.38,95.93l-.52-.88,10.44-6.17a3.19,3.19,0,0,0,1.5-2.11l4.11-20.17,1,.2L215.81,87a4.23,4.23,0,0,1-2,2.78Z"/><ellipse class="cls-19" cx="203.1" cy="99.71" rx="6.36" ry="5.98" transform="translate(103.12 302.69) rotate(-89.92)"/><path class="cls-20" d="M189.07,94.26s6.7-.22,9.14-2.45,5.1-2.15,7.55-.09,4.37,6.16,3.31,8.45a4.62,4.62,0,0,1-5.36,2.66c.69,1.61-3.12,1.85-5,1.18s-6.34-1.81-8.1-1.43C189.06,100.59,189.07,94.26,189.07,94.26Z"/><path class="cls-21" d="M199.67,108.94c1.37,2.65,2.5,4.78,2.5,4.78s14.73-4.81,16.57-5.27,5.76-.91,5.76-.91-.44-3.25-.75-7.36C217.92,106.33,208.7,108.41,199.67,108.94Z"/><circle class="cls-22" cx="202.42" cy="98.42" r="3.34"/><ellipse class="cls-23" cx="217.32" cy="63.96" rx="9.61" ry="3.78" transform="translate(117.85 267.49) rotate(-80.35)"/><ellipse class="cls-13" cx="216.72" cy="63.86" rx="7.66" ry="2.4" transform="translate(117.45 266.81) rotate(-80.35)"/><polygon class="cls-24" points="160.96 207.11 157.27 215.85 156 218.38 165.43 221.74 169.82 211.15 160.96 207.11"/><path class="cls-25" d="M139,121.35s54.61,10.52,62.88,18.51-31.58,73.24-31.58,73.24l-11.6-5.26s10.12-41.63,22.79-49.84c2.15-4.91-25.66-5-49-3.83s-31-15.07-25.43-32.87C120,114,139,121.35,139,121.35Z"/><path class="cls-26" d="M170.32,213.1s39.86-65.25,31.58-73.24c-6.12-5.9-37.55-13.2-53.53-16.6a25.07,25.07,0,0,0-16.65,7.28c12.66-2.63,52.92,6.63,60.75,8.71s8.39,6.11,5.85,12.9c-2.46,6.56-24.18,50.62-29.92,60.08Z"/><path class="cls-11" d="M106.41,125.33S101,66.67,132.07,40c7.66,3.38,13.79,12.29,16.85,20s.84,56.46-.08,60.14c-.24,1-2.59,2.09-6.15,3.14C132.6,126.24,115.48,129,106.41,125.33Z"/><path class="cls-27" d="M131.72,126.85s11.82-5,13.54-28.51,1.43-34.47,1.43-34.47,5.5,17.49,5.79,29.42-1.57,25.12-3.88,30.79S131.72,126.85,131.72,126.85Z"/><path class="cls-28" d="M134.48,67.91c1.71,10.33,7.42,35.29,12.07,40.1,7.68,7.95,44.66-2.51,44.66-2.51L190,94.27c-11.5-.17-27.16-.2-29.61-1.28S153,67.64,151.64,62.57s-5.25-8.15-11.69-7.85S133.87,64.25,134.48,67.91Z"/><path class="cls-29" d="M109.4,127.24s-.88-33.76,5.12-47C124.67,63.31,132.74,55.51,137.69,54a11.08,11.08,0,0,1,9.09,1.43,15.31,15.31,0,0,0-2.58-4.3c-1.37-1.28-7.19-2.71-12.38,1.08S112.9,72.49,110.29,78.8c-3.66,8.85-4.22,17.48-4.39,47.4C106.69,127.81,109.4,127.24,109.4,127.24Z"/><path d="M157.27,215.85s1.91,4.9,8.66,4.67c4.44,4,15.84,4.11,19.83,4s2.6,4.6-3.08,6.13-29.46.19-31.91.19S152,218.68,157.27,215.85Z"/><path class="cls-3" d="M165.57,29.67c.48-1.52-2.18-4.43,0-9s-3.79-8.58-3.79-8.58l-.32.45c-2.71-4.47-7-7.37-11.77-7.37-8.21,0-14.87,8.38-14.89,18.74s6.64,18.43,14.85,18.44c.22,0,.43.3.65.29,3.25,2.13,7.72.21,8.28-1.27.69-1.84,1.13-2.93,2.25-2.93s.83-1.44,0-2.16c.61.21,1.84.09,1.64-.34s.2-1.35.51-3.71C165.94,33.48,166.43,30.48,165.57,29.67Z"/><path class="cls-22" d="M133,32.1l.35,5.12s8.67,2.6,11.21-2.54S133,32.1,133,32.1Z"/><path class="cls-22" d="M158.87,22.18s3.87-1.22,5.21,0c.15.42-.29,1-1,.8S160,22.28,158.87,22.18Z"/><path class="cls-13" d="M165.84,27.6c-1.19-.07-8.31,0-10.93,0v0l-4.66-1.5-.28.87L154,28.23c.19,2.87-2.22,6.23-3.35,7.64l-2.15-3-.75.54,2.36,3.3c.2.77,1.42,4.51,6.63,6.86C163.14,41.28,167.68,31.28,165.84,27.6Z"/><path class="cls-22" d="M157.84,18.8c.49.08,7.28.82,9.73,4.2,2-1.7-.76-4.53-.76-4.53Z"/><path class="cls-11" d="M154.52,18.74s12.9,1.6,16.81,3.1c2.2-9.78-4.58-18-15.28-21S134.11,3,130.42,13s-1.29,14.5,1.12,18.26c2,3,5,5.24,13.65,4.73,5.7-.34,5.73-8.52,6.52-11.55S152.79,18.32,154.52,18.74Z"/><path class="cls-30" d="M155.88.85A22,22,0,0,0,137.25,3.9a22.45,22.45,0,0,1,13.38-.37c9.24,2.58,15.56,9,15.71,17a32.31,32.31,0,0,1,4.84,1.23C173.37,12,166.58,3.84,155.88.85Z"/><path class="cls-22" d="M153.22,17.37c-1.74-.42-2,2.57-2.81,5.67s-.82,11.22-6.52,11.56c-6.31.37-9.63-.71-11.73-2.49,2,2.57,5.23,4.32,13,3.86,5.7-.34,5.73-8.52,6.52-11.55s1.08-6.1,2.81-5.68c0,0,12.9,1.6,16.81,3.1a16.37,16.37,0,0,0,.31-1.79C167.58,18.57,153.22,17.37,153.22,17.37Z"/><path class="cls-31" d="M172.53,18.33a41,41,0,0,1-11.26,27.16c-3.46,1.7-15.5-2.8-13.71-14.79,1.26-8.48,0-14.66,2.58-16S164.86,18.55,172.53,18.33Z"/><path class="cls-18" d="M114,164.93l-34.21-.05a7,7,0,0,1-6-3.39l-4.18-7a2.36,2.36,0,0,0-2-1.15l-56.74-.08a2.3,2.3,0,1,1,0-4.6l56.73.08a7,7,0,0,1,6,3.39l4.18,7a2.37,2.37,0,0,0,2,1.15l34.2,0a2.31,2.31,0,0,1,0,4.61Z"/><rect class="cls-32" x="1.34" y="76.68" width="77.57" height="72.04" rx="6.14" transform="translate(0.15 -0.05) rotate(0.08)"/><path class="cls-33" d="M78.94,94.07V82.87a6.13,6.13,0,0,0-6.13-6.14l-65.3-.09a6.13,6.13,0,0,0-6.14,6.13l0,11.2Z"/><path class="cls-34" d="M80.31,91.1V82.84A6.35,6.35,0,0,0,74,76.48l-67.6-.09A6.36,6.36,0,0,0,0,82.74V91Z"/></g></g></svg>