<svg xmlns="http://www.w3.org/2000/svg" viewBox="0 0 735.42 648.65"><defs><style>.cls-1{fill:#c6c6c6;}.cls-2{fill:#d00;}.cls-3{fill:#c10000;}.cls-4{fill:#616e7d;}.cls-5{fill:#ea1515;}.cls-6{fill:#f22525;}.cls-7{fill:#e81c1c;}</style></defs><g id="Layer_2" data-name="Layer 2"><g id="Object"><path class="cls-1" d="M13.36,635.29a46,46,0,0,0,32.26,13.36H689.8A45.63,45.63,0,0,0,735.42,603V225.82H0V603A46,46,0,0,0,13.36,635.29Zm574-378.87H692.61v93.65H587.35Zm0,119.55H692.61v93.65H587.35ZM451.2,256.42H556.48v93.65H451.2Zm0,119.55H556.48v93.65H451.2Zm0,119.55H556.48v93.64H451.2ZM315.07,256.42H420.35v93.65H315.07Zm0,119.55H420.35v93.65H315.07Zm0,119.55H420.35v93.64H315.07ZM178.94,256.42H284.23v93.65H178.94Zm0,119.55H284.23v93.65H178.94Zm0,119.55H284.23v93.64H178.94ZM42.81,376H148.08v93.65H42.81Zm0,119.55H148.08v93.64H42.81Z"/><rect class="cls-2" y="182.34" width="735.42" height="27"/><path class="cls-2" d="M75.63,52.53h-30A45.6,45.6,0,0,0,0,98.12v53H735.42v-53A45.61,45.61,0,0,0,689.8,52.53H612.43v59.7a20.18,20.18,0,0,1-20.18,20.18H549.73a20.17,20.17,0,0,1-20.17-20.18V52.53H205.88v59.7a20.18,20.18,0,0,1-20.17,20.18H143.17A20.16,20.16,0,0,1,123,112.23V52.53Z"/><rect class="cls-3" y="151.12" width="735.42" height="31.22"/><polygon class="cls-4" points="143.17 112.23 185.71 112.23 185.71 52.53 185.71 0 143.17 0 143.17 52.53 143.17 112.23"/><polygon class="cls-4" points="549.73 112.23 592.25 112.23 592.25 52.53 592.25 0 549.73 0 549.73 52.53 549.73 112.23"/><rect class="cls-2" x="178.94" y="256.42" width="105.29" height="93.65"/><rect class="cls-2" x="315.07" y="256.42" width="105.28" height="93.65"/><rect class="cls-2" x="451.2" y="256.42" width="105.29" height="93.65"/><rect class="cls-5" x="587.35" y="256.42" width="105.26" height="93.65"/><rect class="cls-2" x="42.81" y="375.97" width="105.28" height="93.65"/><rect class="cls-2" x="178.94" y="375.97" width="105.29" height="93.65"/><rect class="cls-2" x="315.07" y="375.97" width="105.28" height="93.65"/><rect class="cls-6" x="451.2" y="375.97" width="105.29" height="93.65"/><rect class="cls-2" x="587.35" y="375.97" width="105.26" height="93.65"/><rect class="cls-2" x="42.81" y="495.52" width="105.28" height="93.64"/><rect class="cls-2" x="178.94" y="495.52" width="105.29" height="93.64"/><rect class="cls-7" x="315.07" y="495.52" width="105.28" height="93.64"/><rect class="cls-2" x="451.2" y="495.52" width="105.29" height="93.64"/></g></g></svg>