<svg xmlns="http://www.w3.org/2000/svg" viewBox="0 0 258.51 201.06"><defs><style>.cls-1{fill:#d00;}.cls-2{fill:#c90000;}</style></defs><g id="Layer_2" data-name="Layer 2"><g id="_34" data-name="34"><path class="cls-1" d="M224.88,93.35h0V37.42A37.75,37.75,0,0,0,187.46,0h-150A37.51,37.51,0,0,0,0,37.42V93.35a37.61,37.61,0,0,0,35.16,37.41v36.66A8.27,8.27,0,0,0,40.07,175a11.19,11.19,0,0,0,3.39.75,10.59,10.59,0,0,0,5.68-2.27l43.08-42.71h95.24a37.5,37.5,0,0,0,37.42-37.41Z"/><path class="cls-2" d="M238.47,91.46v3c0,27.2-22.29,49.12-49.5,49.12h-71v6a23.3,23.3,0,0,0,23.42,23.43h59.73l26.83,26.46a4.84,4.84,0,0,0,3.77,1.51,4.07,4.07,0,0,0,1.89-.38,4.93,4.93,0,0,0,3-4.54v-23a23.53,23.53,0,0,0,21.91-23.43V114.51a23.26,23.26,0,0,0-20-23.05Z"/></g></g></svg>